# xmcd
#
# Track frame offsets:
#	150
#	5697
#	19772
#	30927
#	48047
#	64095
#	78272
#	90985
#	106322
#	121717
#	142497
#	159900
#	191155
#	205234
#	224382
#
# Disc length: 3270 seconds
#
# Revision: 1
# Processed by: cddbd v1.5PL3 Copyright (c) Steve Scherf et al.
# Submitted via: CDex 1.50Beta5
#
DISCID=bf0cc40f
DTITLE=RATS&STAR - THE LEGEND
DYEAR=1900
DGENRE=R&B
TTITLE0=We are RATS&STAR
TTITLE1=ランナウェイ
TTITLE2=トゥナイト
TTITLE3=夢見る16歳
TTITLE4=涙のスウィート・チェリー
TTITLE5=街角トワイライト
TTITLE6=ハリケーン
TTITLE7=憧れのスレンダー・ガール
TTITLE8=め組のひと
TTITLE9=Tシャツに口紅
TTITLE10=月下美人(ムーンライト・ハニー)
TTITLE11=グラマーGuy
TTITLE12=週末ダイナマイト
TTITLE13=今夜はフィジカル
TTITLE14=Miss You
EXTD=
EXTT0=
EXTT1=
EXTT2=
EXTT3=
EXTT4=
EXTT5=
EXTT6=
EXTT7=
EXTT8=
EXTT9=
EXTT10=
EXTT11=
EXTT12=
EXTT13=
EXTT14=
PLAYORDER=
